<?xml version="1.0" standalone="no"?>
<!DOCTYPE svg PUBLIC "-//W3C//DTD SVG 20010904//EN"
 "http://www.w3.org/TR/2001/REC-SVG-20010904/DTD/svg10.dtd">
<svg version="1.0" xmlns="http://www.w3.org/2000/svg"
 width="1188.000000pt" height="1188.000000pt" viewBox="0 0 1188.000000 1188.000000"
 preserveAspectRatio="xMidYMid meet">
<metadata>
Created by potrace 1.14, written by Peter Selinger 2001-2017
</metadata>
<g transform="translate(0.000000,1188.000000) scale(0.100000,-0.100000)"
fill="#000000" stroke="none">
<path d="M5415 11700 c-27 -4 -75 -10 -105 -14 -73 -9 -119 -34 -154 -83 -53
-76 -33 -189 42 -241 15 -10 74 -36 132 -57 128 -46 146 -58 160 -99 14 -42 9
-69 -18 -106 -24 -32 -61 -45 -162 -54 -36 -4 -73 -9 -82 -12 -14 -4 -18 1
-19 18 0 13 -3 32 -5 43 -4 17 -6 35 -13 93 0 7 -5 11 -10 8 -4 -3 -4 -30 1
-60 4 -31 10 -70 11 -88 2 -18 8 -32 13 -31 5 0 38 4 74 8 36 3 81 8 101 10
143 17 217 140 158 262 -24 49 -67 78 -169 113 -111 39 -146 57 -164 85 -33
50 -20 119 28 150 25 16 35 19 121 30 98 13 115 13 116 2 0 -7 3 -24 5 -39 2
-16 6 -40 8 -55 2 -16 5 -36 5 -46 1 -10 5 -16 10 -12 6 3 8 13 6 23 -1 9 -6
46 -10 82 -7 67 -11 81 -23 79 -4 -1 -29 -5 -57 -9z"/>
<path d="M7033 11601 c-6 -3 -12 -17 -15 -31 -3 -14 -38 -150 -77 -302 -39
-152 -71 -281 -71 -286 0 -5 13 -12 29 -15 16 -3 40 -9 54 -12 24 -6 26 -4 38
50 12 53 29 83 29 51 0 -9 5 -16 11 -16 6 0 8 9 3 23 -15 44 -12 77 10 109 32
48 61 59 136 53 51 -3 74 0 105 15 102 50 125 189 44 268 -26 25 -71 46 -128
57 -9 2 -48 12 -87 23 -39 11 -76 17 -81 13z m196 -63 c66 -19 69 -30 40 -150
-27 -114 -53 -155 -92 -144 -47 13 -102 18 -88 8 11 -8 8 -13 -16 -25 l-29
-16 45 178 45 178 25 -8 c14 -5 46 -14 70 -21z"/>
<path d="M4244 11348 c3 -51 8 -190 11 -308 9 -264 9 -267 19 -277 4 -4 6 20
5 55 -1 34 2 66 7 71 10 9 157 61 172 61 6 0 26 -22 46 -50 34 -47 37 -49 63
-39 16 6 37 13 47 15 11 2 23 7 27 11 7 8 -374 545 -391 551 -6 2 -8 -32 -6
-90z m55 -160 c11 -18 31 -47 43 -64 13 -17 42 -59 66 -93 l43 -61 -26 -10
c-15 -6 -32 -10 -40 -10 -8 0 -16 -4 -19 -9 -5 -7 -53 -23 -80 -25 -6 -1 -11
50 -13 114 -1 63 -5 132 -7 153 -4 46 6 47 33 5z"/>
<path d="M8098 11200 c-43 -13 -83 -40 -105 -73 -50 -73 -146 -283 -151 -328
-15 -155 136 -263 277 -199 24 11 55 33 68 48 34 37 151 282 159 332 13 80
-32 167 -107 206 -33 17 -105 24 -141 14z m145 -40 c44 -35 44 -72 2 -159
-136 -277 -178 -358 -197 -373 -50 -43 -138 -4 -138 61 0 37 212 465 237 480
28 16 68 13 96 -9z"/>
<path d="M3393 11062 l-41 -27 119 -215 c66 -118 136 -244 156 -280 20 -36 37
-66 38 -68 5 -6 95 42 95 51 0 10 -60 123 -99 187 -11 19 -24 42 -28 50 -4 8
-33 61 -65 118 -32 58 -58 106 -58 108 0 9 -62 104 -68 104 -4 0 -26 -13 -49
-28z"/>
<path d="M8899 10609 c-52 -67 -99 -126 -104 -133 -39 -43 -195 -248 -195
-255 0 -13 180 -147 208 -156 65 -19 134 -9 185 27 15 11 55 56 90 100 119
153 137 183 144 237 10 86 -20 140 -123 221 -10 8 -38 30 -60 48 -23 17 -44
32 -46 32 -3 0 -47 -55 -99 -121z m265 -40 c17 -29 14 -60 -9 -96 -37 -56
-270 -345 -293 -363 -35 -28 -60 -25 -120 16 l-53 35 33 40 c18 23 44 56 58
74 14 18 54 70 90 115 36 45 75 96 87 113 12 17 26 33 30 36 5 3 26 30 47 59
l38 52 38 -27 c21 -16 45 -40 54 -54z"/>
<path d="M2747 10639 c-20 -17 -37 -35 -37 -40 0 -9 143 -192 178 -228 9 -10
10 -17 2 -26 -18 -21 -116 -95 -126 -95 -5 0 -25 22 -44 48 -19 26 -39 52 -45
58 -14 15 -88 104 -100 120 -8 11 -19 7 -52 -19 -23 -17 -42 -35 -43 -38 0 -3
13 -21 29 -40 16 -19 83 -101 151 -184 67 -82 138 -170 158 -194 21 -24 43
-52 50 -63 7 -10 18 -18 23 -18 14 0 79 53 79 64 0 5 -43 62 -97 128 -95 118
-96 119 -74 134 12 9 42 34 68 56 44 38 47 39 60 22 8 -11 21 -28 31 -39 9
-11 46 -57 82 -102 36 -45 70 -82 75 -82 6 0 27 15 48 33 l39 32 -201 247
c-111 135 -205 248 -209 251 -5 3 -25 -9 -45 -25z"/>
<path d="M5897 10624 c-1 -1 -58 -5 -127 -8 -69 -4 -138 -9 -155 -11 -16 -2
-59 -7 -95 -11 -36 -3 -72 -8 -80 -9 -8 -1 -40 -6 -70 -10 -55 -7 -74 -10
-120 -20 -14 -2 -41 -7 -60 -10 -19 -3 -53 -11 -75 -17 -22 -6 -53 -12 -70
-15 -16 -3 -104 -27 -195 -55 -690 -207 -1259 -547 -1766 -1053 -273 -273
-477 -534 -679 -869 -163 -271 -342 -681 -430 -982 -55 -189 -129 -501 -141
-599 -2 -22 -6 -47 -9 -55 -2 -8 -7 -39 -10 -69 -4 -30 -8 -61 -10 -70 -1 -9
-6 -50 -10 -91 -4 -41 -9 -84 -11 -94 -6 -33 -18 -276 -17 -366 0 -104 12
-376 17 -410 2 -14 7 -61 11 -105 4 -44 9 -89 10 -100 2 -11 6 -36 9 -55 3
-19 8 -46 11 -60 2 -14 7 -41 9 -60 2 -20 7 -47 10 -60 3 -14 8 -38 11 -55 10
-51 24 -128 35 -177 17 -84 88 -340 125 -447 19 -58 35 -108 35 -112 0 -4 -10
-11 -22 -14 -26 -8 -64 -24 -163 -70 -119 -56 -195 -84 -274 -101 -171 -35
-345 29 -408 150 -38 73 -3 209 72 275 32 28 33 30 12 33 -12 2 -42 0 -66 -4
-157 -28 -275 -171 -327 -398 -42 -186 -49 -517 -14 -687 5 -27 12 -60 15 -75
13 -69 17 -87 36 -157 61 -225 186 -499 264 -576 61 -60 207 -135 310 -160 68
-17 196 -17 293 0 17 3 46 7 63 9 l30 5 -5 -52 c-3 -29 -8 -79 -12 -112 -9
-89 8 -123 82 -162 101 -53 261 -95 338 -88 17 2 62 6 100 10 l69 6 -38 -48
c-22 -26 -55 -68 -74 -93 -20 -25 -72 -82 -115 -128 -120 -124 -120 -124 -92
-202 75 -209 224 -440 391 -603 273 -268 731 -562 1190 -762 61 -26 133 -58
160 -70 144 -64 408 -162 605 -223 154 -48 510 -140 610 -157 19 -3 54 -10 78
-16 23 -5 59 -12 78 -15 20 -3 46 -7 57 -10 25 -4 61 -9 172 -23 80 -11 108
-13 260 -28 105 -9 347 -9 460 1 152 14 140 12 280 32 471 67 1053 229 1516
424 266 112 636 295 731 361 14 11 28 19 31 19 5 0 58 34 187 119 30 20 59 39
65 44 203 151 280 214 380 312 35 34 124 139 146 172 8 12 34 50 58 85 48 67
133 228 169 317 35 85 31 101 -40 175 -121 124 -258 288 -258 308 0 6 20 7 53
3 147 -21 291 3 424 68 53 26 67 39 85 76 20 42 21 50 10 126 -18 122 -17 136
11 130 108 -23 295 -29 362 -11 117 31 278 118 325 174 49 59 106 177 200 412
36 90 94 329 105 435 3 28 8 70 11 95 6 48 6 273 0 330 -12 114 -19 153 -37
230 -35 145 -116 275 -209 336 -37 25 -170 56 -189 45 -6 -4 3 -17 22 -32 38
-30 74 -98 85 -161 24 -126 -81 -236 -256 -268 -62 -11 -124 -8 -209 11 -38 8
-194 71 -218 88 -5 4 -52 25 -102 46 -51 21 -93 44 -93 51 0 7 9 37 19 66 49
137 110 354 142 503 7 33 14 65 15 70 6 24 46 243 50 275 3 19 7 42 9 50 2 8
7 44 10 80 4 36 8 79 10 95 3 27 8 88 20 245 5 67 5 396 0 465 -7 105 -16 211
-21 243 -2 17 -6 47 -9 65 -2 19 -7 60 -11 93 -3 32 -8 62 -9 65 -2 3 -7 28
-10 55 -9 66 -67 335 -100 459 -124 465 -345 955 -602 1333 -62 91 -155 224
-170 242 -6 8 -33 42 -59 75 -167 211 -431 472 -679 674 -341 276 -795 523
-1235 673 -219 75 -486 144 -630 163 -25 3 -56 8 -70 11 -14 2 -41 6 -60 9
-19 2 -57 6 -85 10 -92 10 -139 14 -245 21 -143 8 -210 10 -213 8z"/>
<path d="M1959 9888 c-18 -24 -45 -56 -60 -73 -69 -75 -89 -174 -53 -251 24
-51 225 -221 302 -256 80 -36 182 -6 236 70 55 78 44 195 -23 256 -28 25 -27
12 3 -27 52 -71 54 -159 5 -221 -43 -54 -98 -52 -166 7 -30 27 -241 197 -292
236 -39 30 -56 83 -37 120 8 14 28 42 45 61 18 19 39 47 48 63 22 35 40 34 83
-5 79 -72 80 -72 80 -57 0 12 -89 90 -127 112 -6 4 -25 -11 -44 -35z"/>
<path d="M9703 9910 c-21 -10 -91 -61 -155 -115 -156 -129 -180 -174 -153
-297 9 -38 87 -115 127 -124 50 -11 80 -11 117 -1 41 11 88 40 73 45 -6 2 -23
-5 -38 -15 -43 -28 -139 -24 -186 7 -44 29 -68 72 -62 109 5 28 27 51 119 125
33 27 83 68 110 91 28 24 74 63 104 88 88 75 120 69 209 -37 34 -41 62 -78 62
-83 0 -4 -12 -17 -27 -28 -49 -36 -98 -85 -86 -85 6 0 42 25 78 56 l66 56 -47
56 c-75 90 -117 133 -145 147 -42 23 -123 25 -166 5z"/>
<path d="M1346 8993 c-13 -27 -51 -101 -85 -166 -34 -65 -61 -124 -61 -131 0
-12 546 -296 568 -296 10 0 182 329 182 347 0 7 -142 83 -155 83 -3 0 -5 -4
-5 -8 0 -5 32 -23 70 -42 39 -19 70 -35 70 -37 0 -2 -27 -57 -60 -123 l-60
-120 -134 68 -133 67 28 57 c16 32 29 62 29 68 0 22 -18 -1 -44 -55 -14 -30
-28 -55 -31 -55 -10 0 -265 130 -265 135 0 8 111 218 120 228 4 5 38 -7 74
-27 72 -39 76 -40 76 -28 0 9 -135 82 -151 82 -5 0 -20 -21 -33 -47z"/>
<path d="M10335 8924 c-88 -18 -173 -35 -190 -38 -71 -13 -241 -47 -258 -52
-35 -11 -6 -22 31 -12 79 22 78 23 127 -70 l46 -86 -45 -45 -44 -46 24 -48
c14 -27 29 -47 34 -45 10 3 480 467 480 474 0 8 -49 1 -205 -32z m-22 -36 c-3
-7 -52 -57 -108 -111 l-102 -98 -42 79 c-37 73 -50 104 -35 90 3 -3 22 -1 42
4 20 5 53 11 72 14 19 3 60 12 90 19 72 17 91 18 83 3z"/>
<path d="M10720 8098 c-98 -27 -119 -68 -167 -327 -11 -65 -74 -103 -140 -86
-44 11 -62 33 -87 114 -35 110 -41 151 -25 152 8 0 21 2 29 5 8 2 36 9 63 15
26 7 47 16 47 21 0 11 -4 11 -93 -14 l-79 -23 6 -35 c3 -19 19 -76 35 -125 23
-68 39 -98 65 -122 81 -75 209 -59 267 33 12 20 31 85 44 154 27 136 35 154
75 175 52 27 115 14 144 -30 8 -13 24 -56 35 -96 11 -41 23 -83 26 -95 7 -23
-7 -31 -98 -54 -42 -11 -73 -30 -50 -30 17 0 158 42 166 49 15 14 -46 215 -78
257 -40 52 -121 79 -185 62z"/>
<path d="M945 8032 c-4 -9 -9 -28 -11 -42 -3 -14 -9 -36 -14 -50 -18 -49 -73
-270 -68 -275 6 -7 149 -45 168 -45 30 0 -13 18 -82 36 -38 9 -68 20 -68 24 0
11 59 232 63 236 2 2 122 -91 266 -206 144 -116 266 -210 271 -210 4 0 17 35
29 78 70 262 79 303 68 307 -14 5 -160 45 -164 45 -2 0 -3 -4 -3 -8 0 -5 36
-19 81 -32 58 -16 79 -27 75 -37 -3 -7 -18 -61 -33 -118 -15 -58 -31 -105 -36
-105 -4 0 -54 37 -110 82 -56 46 -109 88 -117 95 -8 6 -76 61 -150 120 -163
131 -156 127 -165 105z"/>
<path d="M11013 7079 c-23 -3 -49 -4 -58 -3 -8 1 -15 -2 -15 -7 0 -6 35 -8 85
-5 l85 4 1 -52 c1 -28 2 -66 2 -85 2 -39 13 -36 -148 -46 -66 -4 -145 -8 -175
-10 -30 -2 -104 -7 -165 -10 -143 -8 -144 -8 -140 -48 2 -18 4 -42 4 -54 1
-19 6 -22 39 -18 20 2 93 7 162 10 69 4 141 9 160 10 19 1 90 6 158 10 l122 7
1 -59 c0 -32 2 -70 4 -85 3 -25 1 -28 -28 -29 -29 -1 -91 -5 -125 -8 -7 -1
-10 -6 -7 -11 3 -6 18 -8 32 -6 14 3 51 6 84 7 60 2 64 5 61 49 0 3 -3 46 -6
95 -4 50 -9 131 -12 180 -6 97 -11 157 -13 165 -1 7 -54 7 -108 -1z"/>
<path d="M739 6983 c0 -4 -2 -15 -4 -23 -1 -9 -6 -81 -9 -160 -4 -80 -8 -157
-10 -173 -2 -15 1 -30 6 -33 5 -3 41 -7 81 -9 69 -4 140 -8 382 -21 61 -3 125
-7 143 -9 18 -1 34 0 36 4 5 8 17 212 19 316 2 73 0 80 -18 81 -114 8 -171 7
-162 -3 6 -6 46 -9 146 -12 23 -1 23 -2 18 -93 -4 -51 -6 -113 -7 -136 l0 -44
-127 7 c-71 3 -137 7 -147 9 -26 4 -34 30 -26 82 4 24 3 49 -1 56 -7 10 -9 10
-10 1 -1 -7 -3 -22 -4 -33 -1 -11 -3 -40 -4 -64 -1 -43 -1 -44 -33 -40 -38 4
-176 12 -232 13 l-39 1 6 88 c4 48 7 109 7 135 l0 49 85 -4 c47 -2 85 0 85 4
0 4 -3 8 -7 9 -80 7 -173 9 -174 2z"/>
</g>
</svg>
